# xmcd
#
# Track frame offsets:
#	150
#	11154
#	32325
#	46824
#	65818
#	81981
#	95361
#	106034
#	125193
#	135167
#	150741
#	163724
#	176182
#
# Disc length: 2648 seconds
#
# Revision: 0
# Processed by: cddbd v1.5.1PL0 Copyright (c) Steve Scherf et al.
# Submitted via: dBpowerAMP V4.0
#
DISCID=a50a560d
DTITLE=Laura Downing - Yodelling your troubles away
DYEAR=2003
DGENRE=Country
TTITLE0=Wide rolling plains
TTITLE1=Harold Clifford Young
TTITLE2=The yodeller's dream
TTITLE3=Could you walk a mile
TTITLE4=Blues yodel #6
TTITLE5=The snorer
TTITLE6=Rock and roll yodelling song
TTITLE7=We're alredy there
TTITLE8=Yodel your troubles away
TTITLE9=Too many ters
TTITLE10=There's a new moon
TTITLE11=The Tazzie yodel
TTITLE12=Shelter for the brave
EXTD=
EXTT0=
EXTT1=
EXTT2=
EXTT3=
EXTT4=
EXTT5=
EXTT6=
EXTT7=
EXTT8=
EXTT9=
EXTT10=
EXTT11=
EXTT12=
PLAYORDER=
